<svg xmlns="http://www.w3.org/2000/svg" width="2137" height="820" viewBox="0 0 2137 820">
  <path id="BG" d="M2052.88,817.888q.387.8.8,1.591c-41.142-.188-92.022-15.531-135.514-19.154-55.357-4.611-111.989-5.067-167.928-3.354-96.254,2.948-191.2,12.2-287.022,17.553a3544.558,3544.558,0,0,1-464.275-4.614c-41.359-3.147-82.643-7.033-124.472-7.774-51.761-.917-103.294,3-154.69,6.132-154.5,9.427-310.768,11.873-466.188,7.35-67.042-1.951-146.132-.963-211.113-7.4-59.808-5.926-38.41-34.272-37.533-58.759.884-24.68-4.991-49.551-4.942-74.3C.1,623.43,8.148,571.822,17.473,520.36,36.09,417.622,60.751,314.041,39.322,210.87c-7.424-35.741-19.477-71.424-19.99-107.426C19.066,84.786,21.5,65.976,30.391,47.776,41.084,25.9,41.743,17.716,83.305,17.471c84.292-.494,162.924,7.285,249.258,2.11C417.126,14.513,500.77,6.137,585.679,2.387,840.047-8.848,1093.9,23.063,1349.224,26.1c70.194.836,140.412-.515,210.573-1.865l240.427-4.628c47.942-.923,235.688-10.2,278.029,4.175,43.6,14.8,57.572,71.7,58.721,94.6,2,39.907-113.3,75.111-111.3,115.018q12.021,239.444,24.043,478.889c1.737,34.613-13.354,71.614,3.159,105.6" transform="translate(0)" fill="#ebf7fa"/>
</svg>
