<svg xmlns="http://www.w3.org/2000/svg" width="531.977" height="154.437" viewBox="0 0 531.977 154.437">
  <g id="gauche" transform="translate(0 0)">
    <path id="Fill_1" data-name="Fill 1" d="M243.636,28.364q-3.472-.418-6.966-.6c-3.534-.19-7.244-.246-10.323-1.99-3.736-2.118-5.753-6.25-8.506-9.545-6.478-7.753-16.67-9.214-26.163-9.494-4.668-.138-26.751,2.306-26.733,9.935C164.918,5.754,152-1.5,141.263.435S122.05,10.471,114.849,18.67a32.825,32.825,0,0,0-49.4-12.084C59.41,11.143,55.625,17.439,51.248,23.45c-6.123,8.41-7.522,5.358-16.818,2.314C30.578,24.5,25.8,24.422,23.054,27.4,20.9,29.742,20.62,33.3,18.7,35.833,14.113,41.914,1.983,40.318.173,47.721c-.786,3.21,1.206,6.591,3.961,8.418s6.122,2.428,9.39,2.912c18.028,0,35.854,3.044,54.086,2.3,18.175-.738,36.276-2.636,54.363-4.486,18.563-1.9,37.549-4.634,56.238-4.493,15.823.12,32.361,3.055,48.4,4.061,8.769.55,17.555,1.1,26.336.784,6.812-.246,14.91-1.949,17.381-8.3,1.813-4.662-.462-10.151-4.258-13.41s-8.8-4.708-13.694-5.72q-4.337-.9-8.739-1.426" transform="translate(195.678 92.965)" fill="#ebf7fa"/>
    <path id="Fill_7" data-name="Fill 7" d="M145.488,32.433a17.284,17.284,0,0,0-14.929-9.018c-.32,0-.643.007-.966.016a23.688,23.688,0,0,0-5.26-1.162,14.687,14.687,0,0,1-2.71-3.414C111.747,4.041,89.485-.7,74.431,8.809,64.643-2.067,45.824-3.027,34.98,6.8c-3.675,3.33-6.652,7.764-11.306,9.476-3.166,1.165-6.658.878-10,1.355C6.921,18.589.256,23.782.014,30.6c-.277,7.769,3.627,8.76,8.208,8.455a15.607,15.607,0,0,0,2.644,1.426c8.343,3.456,21.633.933,30.514.982l75.121.418a175.541,175.541,0,0,0,22.362-.827c3.194-.391,7.075-1.638,7.542-4.822a6.352,6.352,0,0,0-.916-3.8" transform="translate(0 105.369)" fill="#ebf7fa"/>
    <path id="Fill_10" data-name="Fill 10" d="M123,18.835c-6.108-.93-12.81.151-18.106-3.03-2.827-1.7-4.862-4.411-7.2-6.74C84.377-4.218,59.429-2.667,47.86,12.165A22.306,22.306,0,0,0,26.212,7.152,22.308,22.308,0,0,0,11.371,23.689C6.135,21.445-.621,26.492.046,32.149c.726,6.154,10.982,7.944,21.466,7.966,6.643,1.818,15.558,1.016,19.353.9l52.25-1.535c10.01-.294,20.056-.591,29.934-2.231,4.3-.713,9.222-2.236,10.7-6.334,2.092-5.813-4.64-11.156-10.748-12.085" transform="translate(123.735 0)" fill="#ebf7fa"/>
    <path id="Fill_12" data-name="Fill 12" d="M15.134,45.074c-5.158-.02-10.594-2.014-13.45-6.309S-.4,27.746,4.062,25.167c4.614-2.665,11.053-.3,15.426-3.349,2.808-1.955,3.861-5.523,5.41-8.574A24.712,24.712,0,0,1,45.245.03,24.711,24.711,0,0,1,66.838,11.09a11.137,11.137,0,0,0,2.59,3.269A9.071,9.071,0,0,0,73.45,15.62c7.483,1.107,15.411,2.427,21.1,7.414s7.634,14.984,1.9,19.916c-4.04,3.472-9.991,3.17-15.3,2.676-17.11-1.6-60.862-.532-66.02-.552" transform="translate(432.075 12.294)" fill="#ebf7fa"/>
  </g>
</svg>
