<svg xmlns="http://www.w3.org/2000/svg" width="482.869" height="157.347" viewBox="0 0 482.869 157.347">
  <g id="droite" transform="translate(0 -0.8)">
    <path id="Fill_1" data-name="Fill 1" d="M25.785,29.545q.714.062,1.425.169c4.047.606,8.214,2.178,12.1.906,2.728-.891,4.817-3.043,6.906-5.012C57.474,15,73.786,7.678,88.418,12.7a32.35,32.35,0,0,1,57.045,11.5,8.2,8.2,0,0,0,1.42,3.467c1.367,1.563,3.717,1.658,5.793,1.722a76.471,76.471,0,0,1,22.236,4.025c5.014,1.7,10.048,4.084,13.3,8.263s4.182,10.551.906,14.713c-3.451,4.384-9.828,4.794-15.407,4.836l-98.5.731c-14.748.11-31.2,2.313-45.752-.258-7.39-1.3-27.786-5.282-29.369-13.943-.408-2.234.567-4.489,1.776-6.41a26.156,26.156,0,0,1,23.914-11.8" transform="translate(83.215 0.8)" fill="#ebf7fa"/>
    <path id="Fill_4" data-name="Fill 4" d="M145.488,32.433a17.284,17.284,0,0,0-14.929-9.018c-.32,0-.643.007-.966.016a23.688,23.688,0,0,0-5.26-1.162,14.687,14.687,0,0,1-2.71-3.414C111.747,4.041,89.485-.7,74.431,8.809,64.643-2.067,45.824-3.027,34.98,6.8c-3.675,3.33-6.652,7.764-11.306,9.476-3.166,1.165-6.658.878-10,1.355C6.921,18.589.256,23.782.014,30.6c-.277,7.769,3.627,8.76,8.208,8.455a15.607,15.607,0,0,0,2.644,1.426c8.343,3.456,21.633.933,30.514.982l75.121.418a175.541,175.541,0,0,0,22.362-.827c3.194-.391,7.075-1.638,7.542-4.822a6.352,6.352,0,0,0-.916-3.8" transform="translate(201.154 115.84)" fill="#ebf7fa"/>
    <path id="Fill_7" data-name="Fill 7" d="M15.133,45.074c-5.158-.02-10.594-2.014-13.45-6.309S-.4,27.746,4.061,25.167c4.614-2.665,11.053-.3,15.426-3.349,2.808-1.955,3.861-5.523,5.41-8.574A24.712,24.712,0,0,1,45.245.03,24.712,24.712,0,0,1,66.838,11.09a11.136,11.136,0,0,0,2.59,3.269A9.071,9.071,0,0,0,73.45,15.62c7.483,1.107,15.411,2.427,21.1,7.414s7.634,14.984,1.9,19.916c-4.04,3.472-9.991,3.17-15.3,2.676-17.11-1.6-60.862-.532-66.02-.552" transform="translate(382.967 33.281)" fill="#ebf7fa"/>
    <path id="Fill_9" data-name="Fill 9" d="M15.129,37.976a11.756,11.756,0,0,1-14.1-5.754,11.756,11.756,0,0,1,4.312-14.6c2.051-1.254,4.47-1.838,6.45-3.2a21.062,21.062,0,0,0,4.362-4.61c3.424-4.368,7.59-8.779,13.073-9.648,4.054-.642,8.121.784,11.979,2.187C48.421,4.971,56.757,8.9,57.885,16.493A30.747,30.747,0,0,1,78.2,20.966c2.428,1.54,4.815,3.758,5,6.629.174,2.7-1.748,5.189-4.122,6.486A20.608,20.608,0,0,1,71.252,36c-19.106,2-56.122,1.975-56.122,1.975" transform="translate(0 80.09)" fill="#ebf7fa"/>
  </g>
</svg>
