<svg height="200" viewBox="0 0 1920 200" width="1920" xmlns="http://www.w3.org/2000/svg" xmlns:xlink="http://www.w3.org/1999/xlink"><linearGradient id="a" x1="22.551288%" x2="82.663802%" y1="101.565009%" y2="-11.77242%"><stop offset="0" stop-color="#1b8c41"/><stop offset=".3192" stop-color="#1b8c41"/><stop offset=".7127" stop-color="#25cf64"/><stop offset="1" stop-color="#25d265"/><stop offset="1" stop-color="#fff"/></linearGradient><g fill="none" fill-rule="evenodd" transform="translate(-27.5808)"><g transform="translate(0 3.9888)"><path d="m295.680823 237.68191c-42.8 10-24.2 1.7-64.1-15.3-16.1-6.9-32.6-26.7-18.9-37.4 5.5-4.3 13.4-4.1 20.5-4.5 46.2-2.6 82.6-35.9 119-62.8 24.6-18.2 50.8-34 78.3-47.4 15.6-7.6 32.3-14.6 49.9-14.4 24.1.2 45.3 13.5 65.9 25 59.7 33.6 133.1 56.3 199.7 35.4 27.4-8.6 51.9-24.1 79.2-33.1 62.2-20.4 130.7-4.7 192.399997 15.7 61.8 20.4 123.9 45.8 189.7 44.4 144.9-2.9 259-132.3 403.5-142.8 13.3-1.00000001 27.2-.80000001 39.4 4.1 18.9 7.6 30.7 25 41.3 41.5 21 32.6 58 103.3 79 135.9z" fill="#ebf7fa" fill-rule="nonzero"/><g fill-rule="nonzero" transform="translate(682.307 123.8839)"><path d="m558 75.635197s-120.4-44.3-270.8-44.5003771c-125.1-.0996229-207.2 19.7003771-287.2 46.4003771 0 0 487.1 127.1 496.8 122.5 9.8-4.6 99.6-109.9 88.2-112.9s-27-11.5-27-11.5z" fill="#5cba80"/><path d="m209.7 96.835197c1.6-2.6 20.6-25.4 57.4-29.3s51.4-18.4 23.4-22.4c-47.5-6.7-56.2-12.7-56.2-12.7l12.1-.6s9.2 5.4 39.3 7.2c12.5.8 40.5 2.6 37.7 16.5-2.7 13.9-23.7 25-23.7 25s-19.8.3-20.6.1c-.7-.1-69.4 16.2-69.4 16.2z" fill="#ece0c8"/><g transform="translate(275.2539)"><path d="m40.2 33.5c-.3-.4-1.1-11.8-1.1-11.8l-19.2-1-9.8-20.7-10.1 20.4v12l20.2.5z" fill="#ece0c8"/><path d="m7.4 32.7-.2-9s0-2.3 2.1-2.3c.6 0 1.2.2 1.7.6.4.4.7 1 .7 1.6v9.4z" fill="#513a2b"/><path d="m29 1.9-18.9-1.9 9.8 20.7 19.3 1z" fill="#513a2b"/><g fill="#fff" transform="translate(2.5 21.7)"><path d="m12.5 7.9h2.4v-7.9h-2.7z"/><path d="m20.4 8.4h2.5v-7.5h-2.8z"/><path d="m31.1 1.5-.1 7h2.7v-6.9z"/><path d="m25.5 1.3v7.2h2.9l-.2-7.2z"/><path d="m.3 8.1h2.4v-7.9h-2.7z"/></g></g></g><g transform="translate(850.2136 130.3345)"><path d="m8.538691 22.837304 1.7 10.4" stroke="#302c2e" stroke-width="1.12"/><g fill-rule="nonzero"><path d="m14.738691 15.4373043c1.1 6.8-1.9 8.6-5.90000002 9.3-4 .6-7.4-.1-8.5-6.9s.5-17.09999997 4.5-17.79999997 8.80000002 8.6 9.90000002 15.39999997z" fill="#97d383"/><path d="m10.038691 11.4373043c-.30000002-.1-.60000002 0-.70000002.3l-1.4 3.7-.8-4.5 1.1-3.09999997c.1-.3-.1-.6-.3-.7-.3-.1-.6.1-.7.3l-.4 1.2-.6-3.7c-.1-.3-.3-.5-.6-.5-.3.1-.5.3-.5.6l.6 3.6-.7-.9c-.2-.2-.5-.3-.8-.1-.2.2-.3.5-.1.8l2 2.49999997.8 4.7-2.5-3.1c-.2-.2-.5-.3-.8-.1s-.3.5-.1.8l3.7 4.7.8 4.5c0 .3.3.5.6.5h.1c.3-.1.5-.3.5-.6l-.8-4.7 2.00000002-5.6c0-.2-.1-.5-.4-.6z" fill="#b9e09e"/></g></g><g transform="translate(1043.7197 136.6761)"><path d="m5.318344 18.614974-1 8.5" stroke="#302c2e" stroke-width="1.12"/><g fill-rule="nonzero"><path d="m11.8183444 14.3149736c-.7 5.6-3.49999999 6.3-6.69999999 5.8-3.2-.4-5.7-1.8-5-7.3.7-5.49999996 4.4-13.19999997 7.6-12.79999996 3.19999999.4 4.89999999 8.7 4.09999999 14.29999996z" fill="#97d383"/><path d="m9.11834441 9.91497364c-.2-.2-.6-.1-.8.09999996l-1.6 2.2.4-3.29999996 1.5-2.1c.2-.2.1-.6-.1-.8s-.6-.1-.8.1l-.3.4.3-2.5c0-.3-.2-.6-.5-.6s-.6.2-.6.5l-.3 2.6-.2-.5c-.1-.3-.4-.4-.7-.3s-.4.4-.3.7l.9 2.4-.4 3.29999996-1.1-2.59999996c-.1-.3-.4-.4-.7-.3s-.4.4-.3.7l1.8 4.49999996-.5 3.8c0 .3.2.6.5.6h.1c.3 0 .5-.2.6-.5l.5-3.7 2.8-3.9c.1-.2.1-.6-.2-.79999996z" fill="#b9e09e"/></g></g><g transform="translate(1149.0995 160.3871)"><path d="m5.268877 20.424809-3.2 9.2" stroke="#302c2e" stroke-width="1.12"/><g fill-rule="nonzero"><path d="m13.5688768 17.124809c-2.1 6.1-5.39999997 6.2-8.89999997 4.9-3.5-1.2-6-3.4-3.9-9.4 2.1-5.99999996 8-13.69999996 11.49999997-12.49999996 3.5 1.2 3.5 10.89999996 1.3 16.99999996z" fill="#97d383"/><path d="m11.7688768 8.02480904c.2-.2.2-.6 0-.8s-.6-.2-.8 0l-.7.6 1.1-3.1c.1-.3-.1-.6-.3-.7-.3-.1-.6.1-.7.3l-1.09999997 3.2-.2-1c-.1-.3-.4-.5-.7-.4s-.5.4-.4.7l.6 2.9-1.4 3.99999996-.6-3.5c0-.29999996-.3-.49999996-.6-.49999996s-.5.29999996-.5.59999996l.9 5.6-1.4 3.9c-.1.3.1.6.3.7h.2c.2 0 .4-.1.5-.4l1.4-4.1 4.09999997-3.6c.2-.2.3-.6 0-.8-.2-.2-.6-.3-.8 0l-2.59999997 2.3 1.3-3.8z" fill="#b9e09e"/></g></g><g transform="translate(0 25.1683)"><path d="m0 83.867184s671.3 10.5 817.9 99.1c0 0-796.1 81.2-803.5 76.2-7.5-5.1-14.4-175.3-14.4-175.3z" fill="#4a9b63" fill-rule="nonzero"/><path d="m576.6 174.767184c1.9-1 37.2-35.2 108.2-36.1 0 0 9.7 2.4 13 3.2 3.2.8 12.2 3.3 12.2 3.3s-39.1 1.9-60.7 32c-18 24.9-72.7-2.4-72.7-2.4z" fill="#ece0c8" fill-rule="nonzero"/><g transform="translate(477.6486 9.2675)"><path d="m24 76.2v34.7" stroke="#302c2e" stroke-linecap="round" stroke-linejoin="round" stroke-width="3.36"/><path d="m48 55.3c0 22.8-10.7 27-24 27s-24-4.3-24-27 10.7-55.3 24-55.3 24 32.6 24 55.3z" fill="#86cb75" fill-rule="nonzero"/></g><g transform="translate(560.4604)"><path d="m27.5 87.3v39.8" stroke="#302c2e" stroke-width="2.8"/><g fill-rule="nonzero"><path d="m55 63.4c0 26.1-12.3 31-27.5 31s-27.5-4.9-27.5-31 12.3-63.4 27.5-63.4 27.5 37.3 27.5 63.4z" fill="#77be60"/><path d="m39.4 46c-.7-.4-1.5-.1-1.9.5l-8.6 15.5v-20.3l6-10.9c.4-.7.1-1.5-.5-1.9-.7-.4-1.5-.1-1.9.5l-3.6 6.5v-17.1c0-.8-.6-1.4-1.4-1.4s-1.4.6-1.4 1.4v17.2l-3.7-6.5c-.4-.7-1.2-.9-1.9-.5s-.9 1.2-.5 1.9l6.1 10.9v20.3l-8.6-15.5c-.4-.7-1.2-.9-1.9-.5s-.9 1.2-.5 1.9l11 19.9v17.6c0 .8.6 1.4 1.4 1.4s1.4-.6 1.4-1.4v-17.6l11-19.9c.4-.8.2-1.6-.5-2z" fill="#a3d88d"/></g></g><g transform="translate(490.3389 24.2573)"><path d="m167.803867 93.7v18.5" stroke="#302c2e" stroke-width="1.68"/><g fill-rule="nonzero"><path d="m180.603867 82.6c0 12.1-5.7 14.4-12.8 14.4s-12.8-2.3-12.8-14.4 5.7-29.5 12.8-29.5 12.8 17.3 12.8 29.5z" fill="#97d383"/><g fill="#b9e09e"><path d="m21.8038672 25c-.7-.4-1.5-.1-1.9.5l-7.2 12.9v-16.9l5.3-9.5c.4-.7.1-1.5-.5-1.9-.7-.4-1.5-.1-1.9.5l-2.9 5.1v-14.3c0-.8-.6-1.4-1.4-1.4s-1.4.6-1.4 1.4v14.3l-2.8-5c-.4-.7-1.2-.9-1.9-.6-.7.4-.9 1.2-.6 1.9l5.2 9.5v16.9l-7.2-12.9c-.4-.7-1.2-.9-1.9-.5s-.9 1.2-.5 1.9l9.6 17.3v15.4c0 .8.6 1.4 1.4 1.4s1.4-.6 1.4-1.4v-15.4l9.6-17.3c.5-.7.3-1.5-.4-1.9z"/><path d="m173.403867 74.3c-.4-.2-.9-.1-1.1.3l-3.6 6.6v-8.6l2.8-5c.2-.4.1-.9-.3-1.1s-.9-.1-1.1.3l-1.3 2.4v-7.2c0-.5-.4-.8-.8-.8s-.8.4-.8.8v7.2l-1.3-2.4c-.2-.4-.7-.6-1.1-.3-.4.2-.6.7-.3 1.1l2.8 5v8.7l-3.6-6.6c-.2-.4-.7-.6-1.1-.3-.4.2-.6.7-.3 1.1l5.1 9.2v8.2c0 .5.4.8.8.8s.8-.4.8-.8v-8.3l5.1-9.2c-.1-.4-.3-.9-.7-1.1z"/></g></g></g></g><g fill-rule="nonzero" transform="translate(1116.5134 104.5862)"><path d="m881 0s-777.3 24.5-881 121.4c0 0 418.7 28.9 426 23.7s494.9 5.6 485 4.8-30-149.9-30-149.9z" fill="#54a86c"/><ellipse cx="343.9316" cy="69.2" fill="#438955" rx="28.2" ry="3.4"/></g></g><g fill-rule="nonzero"><path d="m1465.08082 49.8707278c-.8-.2-1.6-.5-2.4-1-3.1-2.1-3.9-6.2-1.8-9.3l24.6-36.60000003c2.1-3.1 6.2-3.9 9.3-1.8s3.9 6.2 1.8 9.30000003l-24.7 36.5c-1.5 2.3-4.3 3.4-6.8 2.9z" fill="url(#a)"/><path d="m1473.08082 50.9707278c-2.5-.5-4.6-2.4-5.2-5l-6.6-28.1c-.8-3.6 1.4-7.2 5-8.00000003 3.6-.8 7.2 1.40000003 8 5.00000003l6.6 28.1c.8 3.6-1.4 7.2-5 8-.9.2-1.9.2-2.8 0z" fill="#25d265"/><path d="m1434.48082 137.870728-2-90.5000002c.1-10.8 10-18.9 20.6-16.7l39.1 7.9c10.6 2.1 16.6 13.4 12.4 23.4l-37.1 82.6000002c-7.2 17.4-33.1 12.1-33-6.7z" fill="#ff9c52"/><g fill="#ff8b38" transform="translate(1432.5808 45.6263)"><path d="m38 81.3444444c-.2-.1-.4-.1-.6-.2-.6-.3-1.1-.4-1.7-.5-.9-.2-1.9-.3-2.8-.8-.1 0-.3-.1-.5-.1-1-.1-2-.5-3-.5-.1 0-.3-.1-.4-.1-.9-.3-1.7-.4-2.6-.6-.5-.1-1.1-.1-1.6-.2-.6-.1-1.1-.4-1.7-.5-.7-.2-1.4-.3-2.1-.5s-1.5-.4-2.2-.5c-.8-.1-1.6-.4-2.5-.4-.3 0-.6-.1-.9-.2-.8-.2-1.7-.3-2.6-.5-1.2-.2-2.3-.4-3.5-.7-1.9-.4-3.7-.8-5.6-1.2-.3-.1-.6-.1-.9-.2-.4-.1-.9-.1-1.3-.2l.4 18.2h.6c.2-.1.3-.2.3-.4s.1-.3.2-.2c.2.1.4.2.6.1.3-.1.5 0 .6.3 0 .2.1.3.3.4.4.3.9.5 1.5.4.1 0 .2-.1.2-.2.1 0 0-.1 0-.1-.1-.1-.2-.2-.3-.3s0-.1.1-.1h.1c.4 0 .8.1 1.2.2s.8.1 1.2.2.8 0 1.2.1c.2 0 .4 0 .5.1.4.2.8.3 1.3.3.4 0 .9.1 1.4.2 1.4.4 2.7.7 4.2.5 0-.1.1-.2.1-.2.1 0 .2-.1.2-.1.1 0 .8.3.9.3v.1l-.1.1c0 .1-.3.1-.5.1h-.1c.3.2.5.4.8.4.4.1.8.2 1.2.2.3 0 .6.1.9.3.3.3.6.2.9.1.1 0 .2-.1.2-.1-.4-.1-.7-.1-1.1-.2l-.1-.1h.1c.5.1 1 .2 1.5.3.4.1.8.2 1.3.2.1.1.2.1.3.2-.1 0-.2 0-.3 0-.6-.1-1.2-.2-1.7-.4.1 0 .1 0 .2.1.3.3.5.5.8.7.1 0 .1.1 0 .2 0 .1-.1.1-.1.1-.6 0-1.2-.1-1.8-.4-.2-.1-.4-.2-.6-.2-.3 0-.6-.1-.8-.2s-.4 0-.5.1c.1.1.2.2.2.4.1.3.3.4.6.5.3 0 .7.2 1 .3h.1c.1.1.3 0 .4.1.3.1.5.3.8.4.1 0 .2.1.1.2-.2.3-.1.6 0 1 0 .2 0 .2.2.3.5.2 1.1.4 1.6.6.2.1.4.2.6.2 1.5.3 2.9.7 4.4 1 1 .2 2.1.3999996 3.1.5999996.7 0 1.4.2 2 .4.3-.5.5-.9999996.8-1.5999996 0-.1 0-.2.1-.2l.8-1.7c-2-.4-4-.9-6-1.4-1-.3-2.1-.5-3.1-.7-.1 0-.3 0-.4-.1-.1 0-.2 0-.3-.1 0 0 .1-.1.2-.1.2-.1.3-.1.5-.2.3-.1.5 0 .6.2.2.3.4.3.6.2.4-.2.8-.2 1.2-.1.1 0 .2.1.3.2l.2.2.2-.2c.2-.2.5-.3.7-.1.1.1.2.3.3.4.3.2.7.3 1 .1.3-.1.5-.2.7 0 .6 0 1.1.2 1.7.3.2 0 .2.1.2.4-.1.4 0 .5.2.5.4.1.9.2 1.3.3l6.5-14.6c-.1 0-.1 0-.2-.1-1.2-.3-2.6-.7-4-1zm-4.7 15.9c.2.1.4.2.3.2s-.2 0-.3 0-.2-.1-.2-.1c.1-.1.1-.1.2-.1zm-6.8.2c0-.1.1-.2.2-.2.2.1.4.2.6.2.6.1 1 .4 1.1 1 .2 0 .4-.1.8 0 .3.2.6.3.9.3.1 0 .3-.1.3-.2.1-.4.5-.4.8-.6.2-.1.2-.4.1-.5s-.2-.2-.3-.3c-.1 0-.1-.1-.1-.1 0-.1.1-.1.1-.1h.1c1-.1 1.2 0 1.6.9 0 .2 0 .3-.2.3-.3.1-.5.1-.7.1-.3 0-.4.3-.3.6.2.3.1.7 0 1 0 .1-.1.1999996-.2.1999996-.7-.0999996-1.4-.1999996-2-.5999996-.3-.2-.6-.3-.9-.5-.2-.1-.3-.2 0-.5-.1 0-.3 0-.6 0-.1.1-.2.1-.3.2-.2.1-.5 0-.5-.2v-.1c.1-.4-.1-.6-.4-.7-.1 0-.1-.1-.1-.2zm-1.8-2.8c.1-.1.2-.1.3 0s.1.2.2.3v.1c-.1.1-.1.1-.2.1h-.1c-.1-.1-.2-.1-.2-.1s-.1-.1-.1-.2 0-.1.1-.2zm1.3 1.8s-.1.1-.1.2h-.1c-.1-.1-.2-.1-.4-.2-.3-.2-.8-.4-1.2-.4 0-.1-.1-.1-.1-.2h.1c.6-.1 1.2 0 1.7.4 0 0 .1.1.1.2z"/><path d="m71.5 10.3444444c-.4 0-.8-.1-1.2-.2-.6-.19999996-1.1-.29999996-1.7-.39999996-.7-.1-1.3-.2-2-.2-.4 0-.8-.1-1.2-.2-1.1-.2-2.3-.5-3.4-.6-.9-.1-1.7-.2-2.6-.4-1.4-.3-2.8-.3-4.1-.6-.1 0-.3 0-.4 0-.5.1-1 0-1.5-.1-1.4-.2-2.7-.2-4-.5-.1 0-.2 0-.3 0-.5 0-.9.1-1.4-.2-.1 0-.3 0-.4 0-.7.1-1.4-.1-2.1-.1-.2 0-.3 0-.5-.1-.7-.3-1.4-.3-2.2-.3-.3 0-.7 0-1-.2-.4-.2-.8-.3-1.2-.2-.4 0-.8 0-1.1-.1-.8-.2-1.5-.4-2.3-.6s-1.7-.3-2.5-.5c-.4-.1-.9-.2-1.4-.3-.1 0-.2 0-.3 0v.1c.1.4.4.5.6.7h.3c.3-.1.6 0 .9.1.4.2.6.4.6.8 0 .3.1.6.2.8s.1.4-.1.5l-.1.1-.1.1c-.1.2 0 .6.2.6.7.2 1.5.2 2.3.4.1.1.3.1.4.1.6 0 1.2.1 1.7.3.1.1.3.1.4.1 0 .1.1 0 .1 0 .1-.1.1-.1 0-.2-.2-.1-.4-.2-.6-.3-.1 0-.1-.1 0-.2.1-.2.1-.2-.1-.4-.1-.1-.2-.2-.1-.3.2-.3.3-.6.2-.9l.1-.1h.2c.3.4.8.4 1.1.7s.8.2 1.2.5c.1.1.2 0 .2-.2 0-.1 0-.2.1-.3h.3c.3.1.6.2.8.4s.2.6 0 .7c-.2 0-.4.1-.5.2 0 0-.1.1-.1.2s.1.2.2.2c.4.1.8.2 1.2.2.2 0 .4 0 .6.1.1.1.3.1.5.1.4-.1.9-.1 1.3-.2.2 0 .3-.2.3-.4 0-.1 0-.3 0-.4s.1-.2.2-.2h.5c.4.1.7.2 1.1.5.3.2.6.5.9.6.2.1.3.3.4.4.1.09999996.1.29999996.1.39999996-.2.4-.3.8-.6 1.1-.2.2-.4.2-.6.2-.1 0-.3.1-.4.1-.2 0-.3-.1-.3-.3.1-.2.1-.4-.1-.5s-.4-.2-.6-.3c-.3-.2-.6-.2-1-.1-.2.1-.3.2-.3.4s-.1.3-.2.2c-.2-.1-.4-.2-.6-.1-.3.1-.5 0-.6-.3 0-.2-.1-.3-.3-.4-.4-.3-.9-.49999996-1.5-.39999996-.1 0-.2.09999996-.2.19999996-.1 0 0 .1 0 .1.1.1.2.2.3.3s0 .1-.1.1h-.1c-.4 0-.8-.1-1.2-.2s-.8-.1-1.2-.2-.8 0-1.2-.1c-.2 0-.4 0-.5-.1-.4-.19999996-.8-.29999996-1.3-.29999996-.4 0-.9-.1-1.4-.2-1.4-.4-2.8-.7-4.3-.5-.1 0-.2-.1-.3-.2-.3-.2-.6-.4-.9-.5-.4-.1-.8-.2-1.2-.2-.3 0-.6-.1-.9-.3-.3-.3-.6-.2-.9-.1-.1 0-.2.1-.2.1.4.1.7.1 1.1.2l.1.1h-.1c-.5-.1-1-.2-1.5-.3-.4-.1-.8-.2-1.3-.2-.1-.1-.2-.1-.3-.2h.3c.6.1 1.2.2 1.7.4-.1 0-.1 0-.2-.1-.3-.3-.5-.5-.8-.7-.1 0-.1-.1 0-.2 0-.1.1-.1.1-.1.6 0 1.2.1 1.8.4.2.1.4.2.6.2.3 0 .6.1.8.2.3.1.5 0 .7-.3s.2-.6.1-.9c-.7-.3-1.4-.3-2.1-.1h-.1c-.1-.1-.3 0-.4-.1-.3-.1-.5-.3-.8-.4-.1 0-.2-.1-.1-.2.2-.3.1-.6 0-1 0-.2 0-.2-.2-.3-.5-.2-1.1-.4-1.6-.6-.2-.1-.4-.2-.6-.2-1.5-.3-2.9-.7-4.4-1-1-.2-2.1-.4-3.1-.6-.9 0-1.8-.3-2.7-.6-.3-.1-.5-.1-.8-.2-.6-.1-1.2-.3-1.8-.4-1-.2-1.9-.4-2.9-.6-.1-.1-.3 0-.5 0-.1 0-.2.1-.2.2-.1 0 0 .1 0 .1s.1.1.2.1c.4.2.9.2 1.3.4.5.1 1 .1 1.4.4s.9.2 1.3.3c.2 0 .4.1.6.2s.4.2.6.3c.5.1.6.5.7 1 0 .1 0 .2-.1.2-.1.1-.3.1-.4.1-.3-.1-.6-.2-.9-.2-.2-.1-.4-.2-.5-.5 0-.1-.1-.2-.2-.3-.6-.3-1.1-.7-1.8-.8s-1.4-.2-2.1-.1c.1.3.6.3.7.7 0 .1.1.1 0 .2s-.1.1-.2.2c-.3.2-.3.2-.1.4.1.1.2.2.3.3.1 0 .2.1.1.2h-.1c-.6-.1-1.3-.2-1.9-.4-.2 0-.4 0-.5.1s-.1.3-.2.4c.2-.1.3-.1.5-.1.8.2 1.6.2 2.3.6.1 0 .3.1.5.1.8.1 1.5.4 2.3.5.2 0 .3 0 .2-.2-.3-.3.1-.6 0-.9l.2-.1c.2.2.4.3.6.5.3.2.3.2-.1.4l-.1.1c-.1 0-.1.1-.1.2l.1.1c.2.1.3.2.4.2 2.1.4 4.1.9 6.2 1.4 1 .3 2.1.5 3.1.7.1 0 .3 0 .4.1.1 0 .2 0 .3.1 0 0-.1.1-.2.1-.2.1-.3.1-.5.2-.3.1-.5 0-.6-.2-.2-.3-.4-.3-.6-.2-.4.2-.8.2-1.2.1-.1 0-.2-.1-.3-.2s-.1-.1-.2-.2c-.1.1-.1.1-.2.2-.2.2-.5.3-.7.1-.1-.1-.2-.3-.3-.4-.3-.2-.7-.3-1-.1-.3.1-.5.2-.7 0-.6 0-1.1-.2-1.7-.3-.2 0-.2-.1-.2-.4.1-.4 0-.5-.2-.5-1-.2-2-.4-2.9-.6-.6-.2-1.1-.2-1.6-.1-.2.1-.5 0-.7-.2-.3-.3-.6-.4-.9-.3-.4.1-.7 0-1.1.1-.3.1-.6-.2-.9-.2 0 0-.1-.1-.1-.2-.1-.2-.1-.4-.2-.6-.4.1-.9 0-1.4-.1l-.1-.1c.1 0 .1-.1.2-.1.3.1.5.1.7.1s.3-.1.4-.2c.1 0 .1-.1 0-.2-.1-.2-.3-.3-.6-.4-.7-.2-1.5-.4-2.3-.6-.1 0-.3 0-.4 0-.5.2-.9.1-1.3-.1-.5-.2-1-.2-1.5-.2v.3.1h.3c.7 0 1.3.3 1.9.6.1 0 .1.1 0 .3-.1.1-.1.1-.2.2 0 .1 0 .1.1.2l.2.2c-.1.1-.1.1-.2.1s-.3 0-.5 0c-.1 0-.1.1-.1.2v.1c.2.2.4.2.6.3.5.1 1 .3 1.5.4l.1.1v.1c-.3.1-.5.1-.8.1s-.6-.1-.9-.2c-.2-.2-.4 0-.5.2-.1.3-.3.5-.6.4-.3 0-.6 0-.8 0l.3 12.99999996c.7.2 1.4.3 2 .5 1.4.3 2.8.6 4.1 1.1.2.1.4.1.6.2 1.3.3 2.7.7 4.1 1 .2.1.4.1.6.2.6.3 1.1.4 1.7.5.9.2 1.9.3 2.8.8.1 0 .3.1.5.1 1 .1 2 .5 3 .5.1 0 .3.1.4.1.9.3 1.7.4 2.6.6.5.1 1.1.1 1.6.2.6.1 1.1.4 1.7.5.7.2 1.4.3 2.1.5s1.5.4 2.2.5c.8.1 1.6.4 2.5.4.3 0 .6.1.9.2.8.2 1.7.3 2.6.5 1.2.2 2.3.4 3.5.7 1.9.4 3.7.8 5.6 1.2.3.1.6.1.9.2.8.1 1.6.2 2.4.4s1.7.1 2.5.4c1.7.2 3.2.7 4.9.7h.3c.8.1 1.7.3 2.6.3.1 0 .3.1.5.1 1 .3 2.1.5 3.1.7.8.2 1.6.3 2.4.4h.2l6.7-15.3c.8-1.9 1.2-3.9 1.3-5.8-.6-.1-1.2-.2-1.8-.2zm-55.7-5.39999996c-.2-.1-.4-.2-.3-.2h.3c.1 0 .2 0 .2.1-.1.1-.1.1-.2.1zm6.8-.2c0 .1-.1.2-.2.2-.2-.1-.4-.2-.6-.2-.6-.1-1-.4-1.1-1-.2 0-.5 0-.8 0-.3-.2-.6-.3-.9-.3-.1 0-.3.1-.3.2-.1.4-.5.4-.8.6-.2.1-.2.4-.1.5s.2.2.3.3c.1 0 .1.1.1.1 0 .1-.1.1-.1.1h-.1c-1 .1-1.2 0-1.6-.9 0-.2 0-.3.2-.3.3-.1.5-.1.7-.1.3 0 .4-.3.3-.6-.2-.3-.1-.7 0-1 0-.1.1-.2.2-.2.7.1 1.4.2 2 .6.3.2.6.3.9.5.2.1.3.2 0 .5h.6c.1-.1.2-.1.3-.2.2-.1.5 0 .5.2v.1c-.1.4.1.6.4.7.1 0 .1.1.1.2zm1.8 2.8c-.1.1-.2.1-.3 0s-.1-.2-.2-.3v-.1c.1-.1.1-.1.2-.1h.1c.1.1.2.1.2.1s.1.1.1.2 0 .1-.1.2zm.4-1.2c-.6.1-1.2 0-1.7-.4 0 0-.1-.1-.1-.2 0 0 .1-.1.1-.2h.1c.1.1.2.1.4.2.4.2.8.4 1.2.4 0 .1.1.1 0 .2zm26.1 5.29999996c-.5.1-.7-.1-.8-.4.3 0 .6.1.9.2l.1.1c0 .1-.1.1-.2.1zm4.1-.6c-.1-.1-.2-.2-.2-.3s0-.3.1-.6c0 0 0-.19999996 0-.29999996s.2-.2.3-.2.3.1.3.2c.1.29999996.1.59999996.1.89999996 0 .2-.4.4-.6.3zm3.7 0c-.3-.1-.4-.1-.6-.3 0-.1 0-.2.1-.2.3-.1.5-.1.7.1.1 0 .1.1.1.2s-.2.2-.3.2z"/><path d="m56.1 36.8444444c-1.1 0-2.3-.2-3.4-.3-.1 0-.1-.1-.2-.1.1-.1.1-.2.2-.3.2-.1.5-.2.7-.3.1 0 .1-.1.2-.2-.1 0-.1-.1-.2-.1-.9-.1-1.7.2-2.5.1-.1-.1-.2.1-.2.2-.1.2-.2.3-.4.4-.8.3-1.5.3-2.3.3-1.8-.1-3.5-.1-5.2-.1-.1 0-.1 0-.2 0s-.1-.1-.2-.1l.1-.1c1.2-.1 2.4-.3 3.6-.4.9 0 1.7-.2 2.5-.1s1.4-.3 1.9-1c.1-.1.1-.2 0-.3s-.2-.2-.3-.2-.3 0-.4 0c-.6.2-1 .2-1.5-.1-.4-.2-.9-.3-1.3-.4s-.7 0-1.1.1c-.2.1-.5.2-.7.3-.5.3-1 .3-1.5.3-.9 0-1.7-.1-2.5.1-.2 0-.5 0-.7-.1-.4-.1-.9-.1-1.3-.1-.8 0-1.7 0-2.5 0-1.2 0-2.4-.1-3.6.2-.2 0-.4 0-.6 0-1.2 0-2.4-.1-3.6-.1-.4 0-.6-.2-.6-.6 0-.3-.3-.5-.5-.4-.3.1-.6.2-.9.3-.9.5-1.8.5-2.8.3-.1 0-.2-.1-.3-.2-.3-.4-.4-.5-.7-.3-.3.1-.6.2-.8.5-.2.1-.3.1-.5-.1-.1-.1-.1-.2-.2-.3-.4-.4-.8-.5-1.1-.1-.4.6-1 .4-1.5.3-.1 0-.2-.2-.2-.3 0-.2-.2-.3-.4-.3s-.4 0-.6.1c-.3.1-.6.3-.9.4-.2.1-.4.1-.7.1s-.5-.1-.5-.4c0-.1 0-.4-.2-.4-.5-.1-.9-.2-1.4-.4-.5.2-.9-.3-1.3-.4-.8-.2-1.6-.2-2.2.6-.2.2-.5.4-.8.5-.7.2-1.4.3-2 .6-.2.1-.4.1-.6.1-.8 0-1.5.1-2.3-.1-.2 0-.4 0-.7 0-1.2.2-2.4.5-3.6.6v.3c.9-.1 1.7 0 2.6 0 .2 0 .3.1.4.1-.1.1-.2.1-.3.2s-.1.1-.2.1c-.4.2-.7.5-1 .6-.4.1-.9.1-1.3.1h-.1l.1 6.3h.8.8c.1 0 .3 0 .3.1 0 .2 0 .4-.1.5-.1.2-.3.4-.5.5-.4.1-.8.2-1.3.2l.1 5.5c1.3 0 2.5 0 3.8.2h.6c1.1-.2 2.3-.1 3.4-.1.5 0 .9-.1 1.3-.3 1.1-.6 2.3-.6 3.5-.2.8.2 1.7.1 2.6.3.2 0 .5-.1.7-.3.3-.3.7-.5 1.1-.6.5-.1.6 0 .8.5v.4c0 .2.1.4.3.4 2.4 0 4.7.1 7.1.1 1.5 0 3 .1 4.4.4.2 0 .3.1.5.2.1.1.2.2.2.3s-.1.2-.2.3c-.3.2-.6.2-.9.2-1.5 0-2.9 0-4.4 0-.6 0-1.1 0-1.7 0-.7 0-1.5-.2-2.2.3-.3-.1-.6-.1-.9-.1-.5 0-.9 0-1.2.4s-.7.5-1.2.5c-.3 0-.7 0-1.1-.1-.8-.1-1.5-.1-2.3.1-.6.1-.8-.1-.9-.6 0-.1 0-.3 0-.5 0-.1-.1-.3-.2-.3-.5-.1-1-.2-1.5-.2-.8-.1-1.5-.2-2.2-.5-.3-.1-.5-.1-.7.1-.3.2-.6.3-.9.3-1.5 0-2.9-.1-4.4.1-.1 0-.2-.1-.3-.1-.2-.1-.4-.2-.5-.2-.6.2-1.1.1-1.7 0-.3 0-.6 0-.8 0l.4 17h6 2.1c.7 0 1.4-.1 2.1 0 .7 0 1.4-.1 2.1-.1 1 0 2-.2 3 0 .2 0 .4 0 .6-.1.6-.3 1.1-.2 1.7-.1.6.2 1.2.1 1.7-.1.4-.1.7-.1 1.1.1s.9.2 1.3 0 .9-.2 1.3-.1c1.4.4 2.9.1 4.3.6h.4c.6-.2 1.1 0 1.7.1.3.1.6.1.9.1 3.6-.1 7.1.2 10.7-.2h.4c2.2-.1 4.4-.1 6.5-.1l7.2-16c-.5.2-.9.4-1.4.4-.1 0-.2.1-.3.2-.4.4-.9.5-1.3.7-.5.2-1.1.1-1.7 0l-.1-.1c0-.1 0-.2 0-.2.2-.1.3-.2.5-.2.4-.1.9-.1 1.3-.2.2 0 .4-.1.5-.2s.2-.3.2-.5-.2-.4-.4-.4c-.7 0-1.3 0-1.9-.2s-1.1 0-1.6.2c-.6.2-1 .4-1.5.6-.2.3-.5.3-.7.1-.5-.3-.8-.2-1.2.1-.3.2-.7.3-1.1.2-.1 0-.2-.1-.1-.2s.2-.2.2-.3c.1-.3-.1-.6-.4-.7-.4-.2-.9-.2-1.3-.1-1.2.1-2.4.4-3.6.5-1.1.1-2.1.2-3.2.3-.5.1-.6 0-.7-.6 0-.2-.1-.3-.1-.4 0-.2.1-.4.3-.4h.6c.3.1.6.3.9.3.3.1.6-.1.9-.1.1 0 .2.2.2.3.1.2.2.3.4.3l.9-.3c1.2-.6 2.5-.8 3.9-.7.2 0 .5 0 .6.1 1.1.8 2.3.1 3.5.2.2 0 .5-.1.7-.2.8-.5 1.7-.4 2.6-.4.3 0 .5.1.7.3.1.2.3.2.5.1 1-.5 2-.4 3-.4.4 0 .7 0 1 .1l1.7-3.9c-.6 0-1.1 0-1.7 0-1.1 0-2.3.1-3.4 0-.6 0-1.2-.1-1.6-.5-.2-.2-.4-.1-.7-.1-.2 0-.4.1-.7.1 0 0-.1 0-.1-.1-.1-.1 0-.2 0-.2.3-.5 1-.3 1.3-.7 0-.1 0-.1 0-.2l-.1-.1c-.7-.1-1.3-.1-1.9-.2l-.1-.1c0-.1 0-.3.1-.3.5 0 1-.3 1.5-.1.4.1.9.1 1.3.2.3 0 .3.2.3.5s.3.4.7.4c.2-.1.3-.2.5 0 .2.1.1.3.1.5-.1.1 0 .2 0 .2.1.1.1.1.2.1h1.1c.1 0 .3-.1.3-.2.1-.2.2-.5.3-.8 0-.1 0-.2.2-.2.3 0 .5-.1.8-.1.8 0 1.6 0 2.4.1l1.3-2.9c-1.2 0-2.4.1-3.6 0-1.5 0-3.1.2-4.7-.2 0 0-.1 0-.1-.1-.1-.2 0-.3.1-.3h.6 1.3c.4 0 .7.1 1.3.1 1.6-.2 3.3 0 4.9 0h.4l1.5-3.4c-1.2.1-2.3.1-3.5.1-1 0-2.1 0-3.2-.1zm-49.2 19.5s-.1 0-.2-.1c0 0 0-.1.2-.1.1 0 .2.1.2.1s0 .1-.2.1zm3.2-.1c-.6.3-1.1.2-1.7.1-.1 0-.1-.1-.2-.1.1 0 .1-.1.2-.1h.2c.3-.1.5-.1.9-.1.1.1.3.1.6.2zm35.6-3.8c.2-.2.4-.4.5-.3.1 0 .2 0 .3.1s-.1.4-.2.4-.2-.1-.3-.1-.2-.1-.3-.1c0 .1-.1.1 0 0zm-31.4-5.3c-.1 0-.3 0-.4 0s-.2-.1-.3-.1c.1 0 .2-.1.3-.1h.4c.1.1.1.1.1.1s0 .1-.1.1zm4 0c-.7.2-1.5.2-2.2.1-.1-.1-.2-.2-.1-.3 0 0 0-.1.1-.1.1-.1.3-.1.5-.1h.4c.7 0 1 0 1.3.1l.1.1c0 .1-.1.2-.1.2zm-2.6-2.2c.1 0 .2-.1.3-.1h.2c.1 0 .2.1.3.2-.1 0-.2.1-.3.1s-.1 0-.2 0c-.1-.1-.2-.1-.3-.2zm6.5 2c-.6 0-1.3 0-2 0-.1 0-.2-.1-.3-.1.1-.1.1-.1.2-.1h1.1c.3 0 .6 0 .9.1.1 0 .2.1.3.1-.1 0-.1 0-.2 0zm11.9-4.6c-.3 0-.7.1-1.1.1-.9 0-1.7 0-2.5.2-.5.1-1 0-1.5 0-.2 0-.4.1-.6.1s-.4.3-.3.4.2.2.3.2c.3.1.5.1.8.1 1 0 1.9.2 2.8.5.1 0 .1.1.2.2s-.2.3-.4.3c-1 0-2 .2-3 .3-1.3.2-2.5.4-3.8.5-.5.1-1 .1-1.5-.1-.7-.3-1.4-.2-2.1 0-.3.1-.6.1-.9 0-.3-.2-.7-.2-1.1-.2s-.5-.3-.3-.6c.1-.1.2-.2.3-.4.3-.5.2-.6-.3-.7-.6 0-1.3-.1-1.9-.1-.5-.1-.9-.1-1.2-.5-.2-.1-.4-.2-.7-.2-.4-.1-.9-.1-1.3-.1-.1 0-.1-.1-.2-.1l.1-.1c.7-.1 1.4-.4 2.2-.3.2 0 .5-.2.7-.2.3 0 .5.1.7.1.5-.1.8 0 1.3-.4.3.1.6.1.9.1 1.3-.1 2.5.2 3.8.4.2.1.3.2.2.4s0 .3.1.3c.2 0 .5.1.7 0 .6-.3 1.3 0 2-.3.6-.3 1.3-.2 2-.4.5-.1 1-.1 1.5-.1 1.3 0 2.7.2 4 .2.1 0 .2.1.3.2s0 .2-.2.2zm-17.6-2.5c.1-.1.2-.1.4-.1-.1.1-.1.1-.1.1-.1 0-.2 0-.3 0zm2.2 1c.1.1.1.1.2.2l-.1.1c-.1 0-.1-.1-.2-.2.1 0 .2 0 .1-.1zm.1-1s.1-.1.2-.1h1.2c.4-.1 1.1 0 1.7.1.7.2 1.4.2 2.1 0 .5-.1 1-.1 1.5 0s1 .1 1.5 0c1.3-.3 2.5-.3 3.8 0 .2.1.2.2.1.3-.1 0-.1.1-.2.1-.8.2-1.7.3-2.6.2-.5-.1-1-.1-1.5-.1-1.9 0-3.8.1-5.7 0-.6-.1-1.3-.3-2-.4zm15.8.3c-.3 0-.6 0-.9 0-.2 0-.4-.1-.5 0-.1 0-.1-.1-.2-.1l.1-.1c.5-.1 1 0 1.5 0 0 0 .1.1.2.1-.1.1-.1.1-.2.1zm1.5-3.4c-.4 0-.7 0-1 0-.6 0-1.1 0-1.7 0-.7 0-1.5 0-2.4.1-.4 0-.8.1-1.1.2-.6.2-1.3.2-1.9.2-1.8 0-3.7 0-5.5 0-.2 0-.4-.1-.6 0-1 .4-1.9.1-2.8-.1-.7-.2-1.4-.3-2.1-.3-.4 0-.9-.1-1.3-.1l-.1-.1.1-.1c.6-.1 1.2-.3 1.9-.3.3 0 .6 0 .8-.1 1.2-.3 2.4-.3 3.6-.3.2 0 .4 0 .6-.1.6-.4 1.3-.2 2-.1.9.1 1.8.3 2.7.2.4-.1.8 0 1.1.2.5.3 1 .4 1.6.4 1.6 0 3.2.1 4.8.1h1.3c.1 0 .1.1.2.1-.1.1-.1.1-.2.1zm4.2.1c-.6.1-1.2-.2-1.8-.3-.1-.1-.1-.1-.2-.2.2-.1.3-.1.4-.1h.2c.6-.1 1 .3 1.5.4.1 0 .1.1.1.1-.1.1-.1.1-.2.1zm.7 7.7c-.1 0-.1 0-.2 0 0-.1 0-.2.2 0zm8.3-4.3s-.1 0-.1-.1c0 0 0 0-.1 0 .1-.1.1-.1.2.1.1-.1.1-.1 0 0z"/></g><g fill="#000"><path d="m1453.98082 65.3707278c-.1 5.4 2.6 11 8.3 12.2 2.8.6 5.7 0 8.1-1.6s4.1-3.9 5.7-6.2c.5-.7-.4-1.1-1-1.2-.8-.1-1.8.3-2.2 1-2.2 3.1-5 7.2-9.3 5.8-4.3-1.3-6.2-6.2-6.1-10.3 0-1.6-3.5-1-3.5.3z"/><path d="m1436.58082 80.3707278c-7.7-13.5-16.5-26.2-26.2-38.4-.7-.9-4.1.4-3.3 1.3 9.6 12 18.3 24.7 26 38 .5 1.1 4-.1 3.5-.9z"/><path d="m1438.18082 177.070728c2.6 0 5.2.1 7.7-.3.5-.1 1.7-.4 1.7-1.1.1-5.5 0-11 0-16.5 0-4.2 0-8.4 0-12.6 0-1.3-3.1-.7-3.1.4v12.6c0 5.5.1 11 0 16.5.6-.4 1.2-.7 1.7-1.1-2.3.3-4.6.2-7 .2-.6 0-1.7.2-2 .9-.2.6.4 1 1 1z"/><path d="m1457.98082 142.070728c3.9 8.5 7.3 17.3 11.1 25.9.9 2 1.8 4 2.8 5.9.8 1.6 1.3 3.8 3.4 3.5 1-.2 2-.8 2.9-1.3s1.7-.9 2.6-1.4c1.8-1 3.6-2 5.4-3 .5-.3.8-1 .2-1.4s-1.6-.1-2.2.2c-1.5.9-3 1.7-4.5 2.5-.7.4-1.4.7-2 1.1-.8.4-1.7 1.1-2.6 1.4h1.2c-.4-.1-1.5-3.1-1.8-3.6-.7-1.4-1.3-2.8-1.9-4.2-1.2-2.8-2.4-5.6-3.6-8.4-2.5-6.1-5-12.1-7.8-18.1-.6-1.1-3.7-.2-3.2.9z"/></g></g><path d="m1525.98082 82.6707278-17.7 7.8c-1.8-4.1-3.8-8.2-5.1-9.3-2.6-2.4-8.2-6-13.1-4.5-4.9 1.6-8.9 4.5-7.9 10.7.7 4.1 1.5 8.6 3.2 13.2000002l-18.9 8.4c7.3 16.3 26.5 23.8 42.9 16.6s23.9-26.5000002 16.6-42.9000002zm-37.4 16.5c-.9-2.6-2.8-7.8-2.9-9.4-.1-1.9-.1-5 4.2-6.1s7.2.4 9.9 4.6c.7 1.1 1.6 2.9 2.5 4.9z" fill="#fce282"/><g fill="#000" fill-rule="nonzero"><path d="m1492.98082 89.0707278c14.3-6.6 28-14.2 41.1-22.9.7-.5 1.9-1.5.6-2.1-1.2-.6-3.3 0-4.3.6-12.7 8.3-25.9 15.8-39.7 22.2-.7.3-2.5 1.2-1.7 2.2.7 1 3.2.3 4 0z"/><path d="m1451.18082 56.5707278c.5-1.3 1.3-2.5 2.1-3.6.3-.4.6-.7.9-1.1.1-.1-.1.1-.1.1.1-.1.2-.2.3-.2.2-.1.3-.2.5-.3.1-.1.2-.1.3-.1-.1 0-.2.1.1 0-.1 0-.3.1 0 0-.3.1.1 0-.1 0s.1 0 .1 0h.3.1c.3 0 .6.1.9.2.5.2 1 .6 1.5 1 .8.9 1 2.3 1 3.5 0 1.8-.3 3.6-1.3 5.1-.3.5 1.2.4 1.4.4.6-.1 1.6-.3 2-.9 1-1.6 1.3-3.4 1.3-5.2 0-1.4-.3-3-1.3-4-1.2-1.2-3-1.6-4.6-1.4-2.1.2-4.6 1.1-6 2.8-1.1 1.4-2.2 2.9-2.8 4.5-.2.6 1.1.4 1.4.4.4-.1.9-.2 1.3-.4.2-.3.6-.5.7-.8z"/><path d="m1475.88082 64.2707278c.5-1.3 1.2-2.4 2-3.5.3-.4.7-.8 1-1.2.1-.1-.1.1-.1.1.1-.1.2-.2.3-.2.2-.1.3-.2.5-.3.3-.2.2-.1.1 0 .1 0 .2-.1.3-.1-.1 0-.3.1 0 0h.1c.2-.1-.2 0 0 0 0 0 .3 0 .2 0h.4c.1 0 .6.1.8.3.5.2 1 .6 1.4 1 .8.9 1 2.3 1 3.5 0 1.8-.3 3.6-1.3 5.1-.4.6 1.2.5 1.4.4.7-.1 1.6-.4 2-1 1-1.6 1.3-3.4 1.3-5.3 0-1.4-.3-3-1.3-4-1.2-1.2-3-1.6-4.6-1.4-2.1.2-4.6 1.1-6 2.8-1.1 1.3-2.2 2.9-2.8 4.5-.2.6 1.1.5 1.4.4.5-.3 1.7-.5 1.9-1.1z"/></g></g></svg>