<?xml version="1.0" encoding="UTF-8"?>
<svg width="1730px" height="430px" viewBox="0 0 1730 430" version="1.1" xmlns="http://www.w3.org/2000/svg" xmlns:xlink="http://www.w3.org/1999/xlink">
    <!-- Generator: Sketch 61.1 (89650) - https://sketch.com -->
    <title>BG</title>
    <desc>Created with Sketch.</desc>
    <g id="Yuka---Site-Web" stroke="none" stroke-width="1" fill="none" fill-rule="evenodd">
        <g id="1.0-Accueil-web" transform="translate(-160.000000, -3847.000000)" fill="#FFF8EE">
            <g id="Utilisateurs" transform="translate(160.000000, 3538.000000)">
                <path d="M1673.10133,409.665205 C1666.17349,394.835381 1658.00622,380.116895 1645.40161,367.859066 C1629.56584,352.458712 1607.66924,341.822875 1585.75686,332.174595 C1560.64905,321.118437 1534.03581,310.752053 1505.38179,309.174202 C1476.7286,307.597668 1445.42115,316.719559 1431.51061,336.635401 C1428.40996,341.074466 1425.64431,346.371303 1419.64584,348.145479 C1414.60748,349.63505 1409.04626,348.058516 1403.99045,346.607157 C1354.05748,332.268805 1298.48763,329.564387 1247.3917,341.042843 C1196.29577,352.521958 1150.12016,378.498197 1121.81195,414.111518 C1107.33448,396.861223 1075.20407,397.331614 1049.97905,402.766801 C975.768717,418.756791 911.729019,462.125628 880.22456,517.725283 C839.837105,512.112218 795.766275,512.939684 756.33146,522.410085 C744.543993,525.240994 682.373831,557.91536 697.601942,571.371565 C674.805079,551.227775 637.078533,544.16862 603.682926,549.798814 C570.286487,555.429668 541.165291,572.298511 519.173102,592.99702 C521.551377,590.7597 454.179932,581.048833 447.293657,580.935517 C419.092682,580.471056 390.678069,586.708015 367.005875,598.903257 C345.040287,610.219645 325.476249,626.901386 299.45155,629.295503 C284.358105,630.683617 269.361919,626.926421 254.274293,625.496143 C228.921263,623.09412 202.62058,627.481798 180.64086,637.780983 C173.940791,640.920215 167.564918,644.616142 160.25885,646.7441 C144.677447,651.284622 127.472566,648.103885 110.948498,646.835016 C76.2860288,644.173421 23.4128364,648.082144 0,671.378343 C8.40002529,675.047917 16.7867502,673.108379 25.4320014,675.209985 C35.9642448,677.772099 44.9253802,684.003788 55.2506364,687.30904 C78.0167415,694.59812 103.510257,696.100866 127.810063,695.007241 C165.72614,693.299604 203.187509,685.884692 241.153462,686.647594 C300.185565,687.834771 355.806118,708.610361 414.324493,714.882895 C493.966376,723.419762 574.983186,704.773448 654.919339,711.358918 C711.296352,716.003532 765.159592,733.056184 821.543255,737.651387 C891.928069,743.388309 962.136652,729.506513 1032.01771,720.714686 C1129.51121,708.448293 1228.9715,706.035729 1327.22893,713.552757 C1448.65315,722.843303 1572.05663,747.113882 1690.88228,725.240056 C1705.50107,722.548815 1721.71091,717.977328 1727.59467,707.035145 C1730.96466,700.766562 1730.1525,693.634939 1728.99537,686.883448 C1726.24967,670.859859 1721.89213,655.011513 1715.98676,639.533419 C1712.03405,629.173623 1699.8883,611.981304 1701.55501,600.957428 C1711.27925,536.612063 1701.49349,470.445088 1673.10133,409.665205 Z" id="BG"></path>
            </g>
        </g>
    </g>
</svg>