<svg xmlns="http://www.w3.org/2000/svg" xmlns:xlink="http://www.w3.org/1999/xlink" width="477.676" height="398.28" viewBox="0 0 477.676 398.28">
  <defs>
    <clipPath id="clip-path">
      <path id="Clip_2" data-name="Clip 2" d="M0,0H67.2V61.328H0Z" transform="translate(0 0.808)" fill="none"/>
    </clipPath>
    <clipPath id="clip-path-2">
      <path id="Clip_11" data-name="Clip 11" d="M29.933,16.226c-3.149-2.6-8.251-6.343-8.251-6.343S10.949,2.761,5.037,11.262C.14,19.216,7.59,24.453,8.377,25.18S50.7,59.42,50.7,59.42s-21.027-.937-25.211.748-21.605,23.8-21.605,23.8-8.2,7.739-.773,13.887c4.22,3.5,11.176-.848,15.29-4.076,1.816-1.424,13.152-11.555,16.744-12.6s14.415,1.564,18.734,3.437c10.883,4.723,21.987,21.112,24.551,35.139-.6,10.185-23.11,10.137-23.11,10.137L30.01,128.53s-10.878.159-10.46,9.831c.349,8.075,8.125,9.656,10.4,9.571.927-.035,24.471,7.87,30.3,8.154,4.627.226,21.788,1.015,37.358-.831,25.684-1.348,33,5.17,37.636,8.359,23.5,16.162,153.2,133.571,158.673,139.62l48.506-56.862L103.108,64.555,68.516,15.274s-3.789-5.3-8.577-3.051-3.6,7.908-3.6,7.908C54.124,17.086,44.208,0,35.379,0A6.5,6.5,0,0,0,32,.941C25.233,4.967,29,13.932,29.933,16.226Z" transform="translate(0.277 0.387)" fill="none"/>
    </clipPath>
  </defs>
  <g id="main" transform="translate(0 -0.387)">
    <g id="Group_9" data-name="Group 9">
      <g id="Group_3" data-name="Group 3" transform="translate(0 103.362)">
        <path id="Clip_2-2" data-name="Clip 2" d="M0,0H67.2V61.328H0Z" transform="translate(0 0.808)" fill="none"/>
        <g id="Group_3-2" data-name="Group 3" clip-path="url(#clip-path)">
          <path id="Fill_1" data-name="Fill 1" d="M33.517,9.766S29.259.148,16.988.236-.08,10.3,0,21.606C.158,43.242,33.013,61.328,33.013,61.328S67.338,40.222,67.2,20.925,56.626-.051,49.516,0c-10.031.073-16,9.765-16,9.765" transform="translate(-0.001 0.808)" fill="#00d35e"/>
        </g>
      </g>
      <path id="Fill_4" data-name="Fill 4" d="M103.127,64.8l-34.6-49.47s-3.789-5.316-8.578-3.062-3.6,7.939-3.6,7.939C53.845,16.752,41.5-4.713,32.006.944c-6.768,4.042-3,13.041-2.068,15.344-3.148-2.614-8.252-6.367-8.252-6.367S10.952,2.772,5.037,11.305C.14,19.289,7.591,24.547,8.379,25.277S50.707,59.647,50.707,59.647s-21.03-.94-25.215.75S3.883,84.291,3.883,84.291s-8.2,7.769-.773,13.94c4.222,3.51,11.178-.851,15.294-4.091,1.817-1.43,13.154-11.6,16.746-12.643s14.419,1.569,18.737,3.45c10.885,4.742,21.992,21.193,24.556,35.274C77.843,130.443,55.33,130.4,55.33,130.4l-25.314-1.374s-10.88.161-10.462,9.869c.35,8.1,8.127,9.693,10.4,9.607.927-.034,24.476,7.9,30.3,8.185,4.628.227,21.793,1.02,37.365-.834,25.689-1.353,33,5.189,37.643,8.392,23.5,16.224,153.225,134.082,158.7,140.154l48.516-57.081Z" transform="translate(50.076 0.389)" fill="#ffdcbd"/>
      <g id="Group_8" data-name="Group 8" transform="translate(181.676 114.282)">
        <path id="Fill_6" data-name="Fill 6" d="M37.422,0,0,62.765s230.486,211.019,260.549,220.84,34.926-92,34.926-92Z" transform="translate(0.525 0.113)" fill="#e4f0f2"/>
      </g>
    </g>
    <g id="Group_12" data-name="Group 12" transform="translate(50)">
      <path id="Clip_11-2" data-name="Clip 11" d="M29.933,16.226c-3.149-2.6-8.251-6.343-8.251-6.343S10.949,2.761,5.037,11.262C.14,19.216,7.59,24.453,8.377,25.18S50.7,59.42,50.7,59.42s-21.027-.937-25.211.748-21.605,23.8-21.605,23.8-8.2,7.739-.773,13.887c4.22,3.5,11.176-.848,15.29-4.076,1.816-1.424,13.152-11.555,16.744-12.6s14.415,1.564,18.734,3.437c10.883,4.723,21.987,21.112,24.551,35.139-.6,10.185-23.11,10.137-23.11,10.137L30.01,128.53s-10.878.159-10.46,9.831c.349,8.075,8.125,9.656,10.4,9.571.927-.035,24.471,7.87,30.3,8.154,4.627.226,21.788,1.015,37.358-.831,25.684-1.348,33,5.17,37.636,8.359,23.5,16.162,153.2,133.571,158.673,139.62l48.506-56.862L103.108,64.555,68.516,15.274s-3.789-5.3-8.577-3.051-3.6,7.908-3.6,7.908C54.124,17.086,44.208,0,35.379,0A6.5,6.5,0,0,0,32,.941C25.233,4.967,29,13.932,29.933,16.226Z" transform="translate(0.277 0.387)" fill="none"/>
      <g id="Group_12-2" data-name="Group 12" clip-path="url(#clip-path-2)">
        <path id="Fill_10" data-name="Fill 10" d="M14.711,25.955,88.275,74.541,73.1,29.353,15.22,0,0,2.6Z" transform="translate(15.498 -9.343)" fill="#ffd1ae"/>
      </g>
    </g>
  </g>
</svg>
